<?xml version="1.0" standalone="no"?>
<!DOCTYPE svg PUBLIC "-//W3C//DTD SVG 20010904//EN"
 "http://www.w3.org/TR/2001/REC-SVG-20010904/DTD/svg10.dtd">
<svg version="1.0" xmlns="http://www.w3.org/2000/svg"
 width="500.000000pt" height="500.000000pt" viewBox="0 0 500.000000 500.000000"
 preserveAspectRatio="xMidYMid meet">

<g transform="translate(0.000000,500.000000) scale(0.100000,-0.100000)"
fill="#000000" stroke="none">
<path d="M2327 3815 c-320 -61 -574 -296 -658 -610 -26 -96 -31 -289 -11 -375
62 -258 216 -453 458 -580 95 -50 258 -90 369 -90 212 0 473 115 596 262 88
105 108 135 159 239 194 389 14 880 -397 1087 -141 72 -349 98 -516 67z m341
-129 c238 -65 432 -253 503 -486 19 -62 23 -97 23 -205 -1 -114 -4 -140 -28
-209 -53 -155 -145 -281 -270 -370 -265 -189 -619 -177 -868 29 -116 95 -179
186 -230 332 -28 80 -31 99 -31 213 0 105 4 139 26 211 13 47 33 101 42 120
98 190 275 324 495 374 78 18 258 13 338 -9z"/>
<path d="M2600 3438 c0 -15 47 -65 54 -57 2 2 6 16 10 32 4 18 2 27 -6 27 -7
0 -23 3 -35 6 -16 5 -23 2 -23 -8z"/>
<path d="M2710 3184 c0 -172 -4 -262 -11 -277 -9 -16 -3 -14 30 12 68 54 139
60 207 20 39 -23 59 -53 73 -106 9 -31 17 -42 37 -47 15 -4 29 -5 32 -2 3 3 7
76 10 161 l5 155 -142 0 -141 0 0 73 0 72 106 -3 c58 -2 110 0 115 5 28 28
-36 75 -110 81 -44 4 -59 10 -75 29 -27 35 -95 83 -118 83 -17 0 -18 -14 -18
-256z"/>
<path d="M1896 3304 c-9 -8 -16 -22 -16 -30 0 -12 58 -14 385 -14 l385 0 0 24
c0 18 -7 25 -31 30 -17 3 -184 6 -370 6 -294 0 -340 -2 -353 -16z"/>
<path d="M1948 3213 c-76 -4 -78 -5 -78 -29 l0 -25 390 2 390 2 0 22 c0 20 -6
23 -67 28 -67 7 -485 6 -635 0z"/>
<path d="M1870 3090 l0 -30 393 0 394 0 -5 30 -4 30 -389 0 -389 0 0 -30z"/>
<path d="M1872 2908 l3 -113 30 -3 c27 -3 31 1 43 39 17 55 46 96 82 114 38
20 129 19 169 -1 39 -19 79 -71 87 -112 8 -39 24 -42 24 -4 0 37 33 88 72 112
24 14 51 20 95 20 52 0 66 -4 95 -27 46 -38 56 -52 69 -95 7 -21 15 -38 19
-38 13 0 22 72 11 83 -6 6 -11 39 -11 74 l0 63 -395 0 -396 0 3 -112z"/>
<path d="M2052 2900 c-40 -25 -72 -75 -72 -115 0 -67 72 -135 142 -135 31 0
46 8 83 43 42 40 45 47 45 94 0 105 -108 167 -198 113z m102 -76 c32 -32 5
-94 -41 -94 -17 0 -53 40 -53 59 0 42 63 66 94 35z"/>
<path d="M2391 2884 c-96 -86 -39 -234 89 -234 38 0 48 5 87 45 36 38 43 52
43 86 0 52 -23 92 -70 118 -58 32 -102 28 -149 -15z m121 -61 c26 -23 23 -59
-7 -79 -51 -33 -104 21 -71 71 19 29 51 32 78 8z"/>
<path d="M2773 2898 c-85 -60 -80 -173 9 -228 67 -41 140 -14 178 64 35 73 12
144 -56 172 -48 20 -95 17 -131 -8z m112 -82 c11 -17 13 -30 6 -48 -18 -47
-74 -47 -92 -1 -13 34 12 73 46 73 15 0 31 -9 40 -24z"/>
<path d="M1421 2980 c-19 -11 -4 -50 20 -50 13 0 19 7 19 24 0 26 -19 39 -39
26z"/>
<path d="M3674 2976 c-12 -31 0 -51 31 -51 27 0 30 3 30 30 0 25 -4 30 -28 33
-17 2 -29 -2 -33 -12z"/>
<path d="M1202 2953 c2 -22 8 -28 28 -28 20 0 26 6 28 28 3 24 0 27 -28 27
-28 0 -31 -3 -28 -27z"/>
<path d="M1307 2973 c-15 -15 -7 -43 13 -43 15 0 20 7 20 25 0 24 -18 34 -33
18z"/>
<path d="M3502 2958 c2 -15 10 -23 23 -23 13 0 21 8 23 23 3 18 -1 22 -23 22
-22 0 -26 -4 -23 -22z"/>
<path d="M1055 1968 c-37 -10 -83 -36 -111 -63 -7 -6 -21 -30 -33 -53 -39 -77
-21 -172 45 -238 49 -50 98 -68 170 -62 186 16 263 257 118 376 -33 27 -103
54 -136 51 -7 -1 -31 -6 -53 -11z m121 -132 c28 -28 34 -42 34 -75 0 -84 -88
-135 -158 -91 -69 43 -69 148 -1 186 44 24 88 17 125 -20z"/>
<path d="M2135 1785 c2 -104 4 -200 4 -212 1 -20 6 -23 45 -23 l44 0 7 115 c4
63 4 157 0 209 l-7 94 -49 4 -48 3 4 -190z"/>
<path d="M3558 1972 l-148 -3 0 -209 0 -210 160 0 160 0 0 56 0 56 -107 -3
-108 -3 -3 27 -3 27 96 0 96 0 -3 48 -3 47 -93 3 -93 3 3 27 3 27 103 3 102 3
0 49 c0 27 -3 50 -7 52 -5 2 -74 2 -155 0z"/>
<path d="M1380 1761 l0 -211 50 0 c48 0 50 1 50 29 0 16 3 43 6 60 6 30 8 31
59 31 75 0 109 15 141 63 51 76 36 154 -40 211 -23 18 -45 21 -147 24 l-119 4
0 -211z m208 97 c7 -7 12 -24 12 -38 0 -38 -18 -50 -72 -50 l-48 0 0 50 0 50
48 0 c26 0 53 -5 60 -12z"/>
<path d="M1730 1920 l0 -49 58 -3 57 -3 3 -157 3 -158 54 0 55 0 0 160 0 160
55 0 55 0 0 50 0 50 -170 0 -170 0 0 -50z"/>
<path d="M2320 1802 c0 -93 2 -188 6 -210 l7 -42 48 0 49 0 0 76 0 75 90 -3
90 -3 0 46 c0 56 -5 59 -106 59 l-74 0 0 35 0 35 99 0 c108 0 111 1 111 73 l0
27 -159 0 -159 0 -2 -168z"/>
<path d="M2690 1760 l0 -210 145 0 145 0 0 55 0 55 -95 0 -95 0 0 155 0 155
-50 0 -50 0 0 -210z"/>
<path d="M3030 1806 c0 -90 3 -184 6 -210 l7 -46 153 0 154 0 -4 53 -4 52
-101 0 -101 0 0 27 0 28 88 0 87 0 -3 50 -4 50 -87 0 -88 0 5 30 4 30 99 0 99
0 0 50 0 50 -155 0 -155 0 0 -164z"/>
<path d="M3760 1920 l0 -50 55 0 55 0 0 -160 0 -160 60 0 60 0 0 160 0 160 50
0 50 0 0 50 0 50 -165 0 -165 0 0 -50z"/>
</g>
</svg>
