<svg width="1527" height="556" viewBox="0 0 1527 556" fill="none" xmlns="http://www.w3.org/2000/svg">
<path d="M376.122 425.523L376.122 399.699L306.297 399.824C216.691 396.436 190.868 352.544 187.499 285.179C187.5 196.481 232.88 157.641 303.8 157.48L376.883 155.683L377.391 126.668C359.002 125.69 351.658 121.663 347.02 104.556L348.66 69.2868C315.574 64.0475 295.945 63.617 257.956 69.7824L257.051 105.045C251.065 127.869 234.133 136.109 213.618 126.022L186.575 99.1049C157.777 120.005 143.289 134.099 121.26 164.725L148.303 191.642C158.5 209.172 151.805 226.862 128.636 234.06L93.009 235.501C86.5006 271.407 86.8202 291.161 93.3055 325.835L128.198 324.401C151.259 334.589 155.696 344.399 149.649 368.631L121.973 396.436C142.493 424.059 156.118 437.416 183.734 457.91L211.409 430.105C233.124 419.983 250.328 431.203 255.373 450.985L255.199 486.975C293.364 493.38 312.647 491.435 345.91 485.01L344.945 456.743C345.257 435.963 357.035 425.523 376.122 425.523Z" fill="#305680"/>
<path d="M1214.04 201.833V143.712H1221.25V195.588H1282.25V378.116H1330.29V385.801H1274.57V201.833H1214.04Z" fill="#305680"/>
<path d="M1231.82 153.799V143.712H1310.11L1328.84 162.445H1357.66V169.65H1324.04L1308.19 153.799H1231.82Z" fill="#305680"/>
<path d="M1305.79 160.524H1231.82V168.689H1303.39L1319.72 187.423H1379.28V162.445H1371.11V179.257H1322.6L1305.79 160.524Z" fill="#305680"/>
<path d="M1231.82 187.423V179.257H1307.23V212.4L1324.04 230.172V364.186H1285.61V354.099H1316.36V233.535L1298.1 214.321V187.423H1231.82Z" fill="#305680"/>
<path d="M1327.4 197.51H1335.09V375.714H1285.61V368.509H1327.4V197.51Z" fill="#305680"/>
<path d="M1347.1 203.274V197.51V194.147H1387.93V151.397H1328.84L1321.16 143.712H1396.57V203.274H1347.1Z" fill="#305680"/>
<path d="M1303.87 349.295H1293.78L1293.3 236.417H1303.87V349.295Z" fill="#305680"/>
<path d="M377.658 210.892C370.568 207.251 362.807 204.09 354.376 201.407C345.945 198.724 337.706 197.383 329.658 197.383C318.544 197.383 309.634 199.97 302.927 205.144C296.412 210.317 293.155 217.215 293.155 225.838C293.155 232.353 295.263 237.91 299.478 242.509C303.694 246.916 309.251 250.748 316.149 254.006C323.047 257.263 330.233 260.329 337.706 263.203C344.221 265.694 350.64 268.473 356.963 271.539C363.286 274.605 368.939 278.437 373.921 283.036C379.095 287.634 383.119 293.287 385.993 299.994C389.059 306.7 390.592 315.036 390.592 325C390.592 335.922 387.813 345.886 382.256 354.892C376.891 363.898 369.131 370.987 358.975 376.161C348.819 381.335 336.748 383.922 322.76 383.922C313.562 383.922 304.748 382.868 296.317 380.76C288.077 378.652 280.412 375.97 273.323 372.712C266.233 369.263 259.909 365.718 254.353 362.077L266.712 340.233C271.311 343.491 276.58 346.652 282.52 349.718C288.46 352.592 294.688 354.988 301.203 356.904C307.718 358.628 314.041 359.491 320.173 359.491C326.688 359.491 333.107 358.341 339.43 356.041C345.945 353.55 351.31 349.814 355.526 344.832C359.742 339.85 361.849 333.239 361.849 325C361.849 317.91 359.933 312.065 356.101 307.467C352.46 302.676 347.574 298.652 341.442 295.395C335.31 291.946 328.796 288.88 321.897 286.197C315.382 283.706 308.772 281.024 302.065 278.149C295.358 275.084 289.131 271.443 283.382 267.227C277.634 262.82 273.035 257.455 269.586 251.132C266.137 244.808 264.412 237.144 264.412 228.138C264.412 217.215 266.999 207.73 272.173 199.683C277.538 191.443 284.82 185.024 294.017 180.425C303.215 175.635 313.754 173.048 325.634 172.665C339.047 172.665 350.831 174.293 360.987 177.551C371.334 180.808 380.436 184.832 388.292 189.623L377.658 210.892ZM440.9 438.82L519.367 262.628H544.085L467.343 438.82H440.9ZM470.217 382.484L413.02 262.628H443.199L491.199 368.976L470.217 382.484ZM596.724 262.628L599.024 291.658L597.874 287.06C601.706 278.245 607.934 271.251 616.557 266.078C625.179 260.712 635.143 258.03 646.449 258.03C657.754 258.03 666.952 261.383 674.042 268.09C681.323 274.605 685.06 283.131 685.251 293.67V381.622H658.233V303.155C658.042 296.64 656.125 291.371 652.485 287.347C649.036 283.131 643.575 281.024 636.102 281.024C629.203 281.024 622.976 282.94 617.419 286.772C611.862 290.604 607.455 295.874 604.197 302.58C601.132 309.287 599.599 317.048 599.599 325.862V381.622H572.868V262.628H596.724ZM743.235 210.317H769.965V263.203H802.731V284.185H769.965V381.622H743.235V284.185H721.39V263.203H743.235V210.317ZM835.031 381.622V159.156H861.186V290.221L860.611 285.335C864.635 277.479 870.767 270.964 879.007 265.79C887.438 260.617 897.306 258.03 908.611 258.03C919.917 258.03 929.114 261.383 936.204 268.09C943.485 274.605 947.222 283.131 947.414 293.67V381.622H920.396V303.155C920.204 296.64 918.288 291.371 914.647 287.347C911.198 283.131 905.737 281.024 898.264 281.024C891.366 281.024 885.138 283.036 879.581 287.06C874.025 290.892 869.617 296.161 866.36 302.868C863.294 309.574 861.761 317.239 861.761 325.862V381.622H835.031ZM1000.51 173.814H1028.39V381.622H1000.51V173.814ZM1071.13 320.976C1071.13 309.095 1073.91 298.365 1079.46 288.784C1085.21 279.203 1093.07 271.634 1103.03 266.078C1113 260.521 1124.3 257.742 1136.95 257.742C1149.98 257.742 1161.38 260.521 1171.15 266.078C1180.92 271.634 1188.49 279.203 1193.86 288.784C1199.22 298.365 1201.91 309.095 1201.91 320.976C1201.91 332.856 1199.22 343.682 1193.86 353.455C1188.49 363.035 1180.83 370.604 1170.86 376.161C1161.09 381.718 1149.69 384.496 1136.66 384.496C1124.01 384.496 1112.71 381.91 1102.74 376.736C1092.97 371.371 1085.21 363.993 1079.46 354.604C1073.91 345.023 1071.13 333.814 1071.13 320.976ZM1097.86 321.263C1097.86 328.928 1099.58 335.922 1103.03 342.245C1106.48 348.377 1111.08 353.263 1116.83 356.904C1122.77 360.544 1129.28 362.365 1136.37 362.365C1143.85 362.365 1150.46 360.544 1156.2 356.904C1162.15 353.263 1166.74 348.377 1170 342.245C1173.26 335.922 1174.89 328.928 1174.89 321.263C1174.89 313.598 1173.26 306.7 1170 300.569C1166.74 294.245 1162.15 289.263 1156.2 285.622C1150.46 281.79 1143.85 279.874 1136.37 279.874C1129.09 279.874 1122.48 281.79 1116.54 285.622C1110.79 289.455 1106.19 294.533 1102.74 300.856C1099.49 306.988 1097.86 313.79 1097.86 321.263Z" fill="#305680"/>
<path d="M482.783 399.699H374.999V425.523H442.336L435.488 440.119L466.304 438.996L482.783 399.699Z" fill="#305680"/>
<path d="M473.801 425.523H442.364L433.382 440.118H473.801V425.523Z" fill="white"/>
</svg>
